<svg xmlns="http://www.w3.org/2000/svg" width="1100" height="520" viewBox="0 0 1100 520">
  <defs>
    <linearGradient id="g" x1="0" y1="0" x2="1" y2="1">
      <stop offset="0" stop-color="#0C1B3A"/>
      <stop offset="1" stop-color="#0B1020"/>
    </linearGradient>
    <linearGradient id="a" x1="0" y1="0" x2="1" y2="1">
      <stop offset="0" stop-color="#79C0FF"/>
      <stop offset="1" stop-color="#B9D6FF"/>
    </linearGradient>
  </defs>

  <rect x="0" y="0" width="1100" height="520" rx="26" fill="rgba(255,255,255,0.04)" stroke="rgba(255,255,255,0.12)"/>

  <rect x="26" y="26" width="1048" height="58" rx="16" fill="rgba(255,255,255,0.05)" stroke="rgba(255,255,255,0.10)"/>
  <text x="56" y="63" fill="#E8EEFF" font-family="Segoe UI, Arial" font-size="20">Client Escalation Calls</text>
  <circle cx="1020" cy="55" r="10" fill="url(#a)" opacity="0.9"/>

  <rect x="26" y="110" width="260" height="384" rx="16" fill="rgba(255,255,255,0.05)" stroke="rgba(255,255,255,0.10)"/>
  <text x="56" y="150" fill="rgba(232,238,255,0.85)" font-family="Segoe UI, Arial" font-size="16">Campagnes</text>
  <rect x="52" y="178" width="208" height="44" rx="12" fill="rgba(121,192,255,0.14)" stroke="rgba(121,192,255,0.35)"/>
  <text x="66" y="206" fill="#E8EEFF" font-family="Segoe UI, Arial" font-size="14">Relance 7-14 jours</text>
  <rect x="52" y="236" width="208" height="44" rx="12" fill="rgba(255,255,255,0.04)" stroke="rgba(255,255,255,0.10)"/>
  <text x="66" y="264" fill="rgba(232,238,255,0.75)" font-family="Segoe UI, Arial" font-size="14">Escalade 15+ jours</text>

  <rect x="312" y="110" width="762" height="170" rx="16" fill="rgba(255,255,255,0.05)" stroke="rgba(255,255,255,0.10)"/>
  <text x="342" y="150" fill="rgba(232,238,255,0.85)" font-family="Segoe UI, Arial" font-size="16">KPI</text>

  <rect x="342" y="176" width="210" height="74" rx="14" fill="rgba(121,192,255,0.14)" stroke="rgba(121,192,255,0.35)"/>
  <text x="362" y="206" fill="#E8EEFF" font-family="Segoe UI, Arial" font-size="14">Taux de contact</text>
  <text x="362" y="236" fill="#E8EEFF" font-family="Segoe UI, Arial" font-size="26">30%</text>

  <rect x="572" y="176" width="210" height="74" rx="14" fill="rgba(255,255,255,0.04)" stroke="rgba(255,255,255,0.10)"/>
  <text x="592" y="206" fill="rgba(232,238,255,0.75)" font-family="Segoe UI, Arial" font-size="14">DSO</text>
  <text x="592" y="236" fill="#E8EEFF" font-family="Segoe UI, Arial" font-size="26">42j</text>

  <rect x="802" y="176" width="240" height="74" rx="14" fill="rgba(255,255,255,0.04)" stroke="rgba(255,255,255,0.10)"/>
  <text x="822" y="206" fill="rgba(232,238,255,0.75)" font-family="Segoe UI, Arial" font-size="14">Relances automatiques</text>
  <text x="822" y="236" fill="#E8EEFF" font-family="Segoe UI, Arial" font-size="26">1 284</text>

  <rect x="312" y="304" width="762" height="190" rx="16" fill="rgba(255,255,255,0.05)" stroke="rgba(255,255,255,0.10)"/>
  <text x="342" y="344" fill="rgba(232,238,255,0.85)" font-family="Segoe UI, Arial" font-size="16">File d’action (extrait)</text>

  <rect x="342" y="364" width="702" height="40" rx="12" fill="rgba(255,255,255,0.04)" stroke="rgba(255,255,255,0.10)"/>
  <text x="362" y="390" fill="rgba(232,238,255,0.75)" font-family="Segoe UI, Arial" font-size="14">ACME Logistics • 12j de retard • prochain: Email + appel</text>

  <rect x="342" y="414" width="702" height="40" rx="12" fill="rgba(255,255,255,0.04)" stroke="rgba(255,255,255,0.10)"/>
  <text x="362" y="440" fill="rgba(232,238,255,0.75)" font-family="Segoe UI, Arial" font-size="14">North Freight • 18j de retard • prochain: escalade</text>

</svg>
