<svg xmlns="http://www.w3.org/2000/svg" width="1100" height="390" viewBox="0 0 1100 390">
  <defs>
    <linearGradient id="g" x1="0" y1="0" x2="1" y2="1">
      <stop offset="0" stop-color="#79C0FF"/>
      <stop offset="1" stop-color="#B9D6FF"/>
    </linearGradient>
  </defs>

  <rect x="0" y="0" width="1100" height="390" rx="22" fill="rgba(255,255,255,0.04)" stroke="rgba(255,255,255,0.12)"/>

  <text x="40" y="52" fill="#E8EEFF" font-size="22" font-family="Segoe UI, Arial">Exemple d’impact (illustratif)</text>

  <g font-family="Segoe UI, Arial" font-size="16" fill="rgba(232,238,255,0.75)">
    <text x="78" y="330">Temps / relance</text>
    <text x="405" y="330">Taux de contact</text>
    <text x="735" y="330">DSO (jours)</text>
  </g>

  <g>
    <path d="M80 290h260" stroke="rgba(255,255,255,0.18)" stroke-width="3"/>
    <path d="M410 290h260" stroke="rgba(255,255,255,0.18)" stroke-width="3"/>
    <path d="M740 290h260" stroke="rgba(255,255,255,0.18)" stroke-width="3"/>

    <rect x="110" y="140" width="90" height="150" rx="12" fill="rgba(255,255,255,0.22)"/>
    <rect x="230" y="245" width="90" height="45" rx="12" fill="url(#g)"/>
    <text x="155" y="130" fill="rgba(232,238,255,0.78)" font-family="Segoe UI, Arial" font-size="14" text-anchor="middle">Avant</text>
    <text x="275" y="235" fill="rgba(232,238,255,0.78)" font-family="Segoe UI, Arial" font-size="14" text-anchor="middle">Après</text>
    <text x="155" y="210" fill="#0B1020" font-family="Segoe UI, Arial" font-size="18" text-anchor="middle">12m</text>
    <text x="275" y="273" fill="#0B1020" font-family="Segoe UI, Arial" font-size="18" text-anchor="middle">2m</text>

    <rect x="440" y="210" width="90" height="80" rx="12" fill="rgba(255,255,255,0.22)"/>
    <rect x="560" y="165" width="90" height="125" rx="12" fill="url(#g)"/>
    <text x="485" y="200" fill="rgba(232,238,255,0.78)" font-family="Segoe UI, Arial" font-size="14" text-anchor="middle">Avant</text>
    <text x="605" y="155" fill="rgba(232,238,255,0.78)" font-family="Segoe UI, Arial" font-size="14" text-anchor="middle">Après</text>
    <text x="485" y="255" fill="#0B1020" font-family="Segoe UI, Arial" font-size="18" text-anchor="middle">18%</text>
    <text x="605" y="235" fill="#0B1020" font-family="Segoe UI, Arial" font-size="18" text-anchor="middle">30%</text>

    <rect x="770" y="115" width="90" height="175" rx="12" fill="rgba(255,255,255,0.22)"/>
    <rect x="890" y="150" width="90" height="140" rx="12" fill="url(#g)"/>
    <text x="815" y="105" fill="rgba(232,238,255,0.78)" font-family="Segoe UI, Arial" font-size="14" text-anchor="middle">Avant</text>
    <text x="935" y="140" fill="rgba(232,238,255,0.78)" font-family="Segoe UI, Arial" font-size="14" text-anchor="middle">Après</text>
    <text x="815" y="205" fill="#0B1020" font-family="Segoe UI, Arial" font-size="18" text-anchor="middle">52</text>
    <text x="935" y="225" fill="#0B1020" font-family="Segoe UI, Arial" font-size="18" text-anchor="middle">42</text>
  </g>
</svg>
