<svg xmlns="http://www.w3.org/2000/svg" width="900" height="420" viewBox="0 0 900 420">
  <defs>
    <linearGradient id="bg" x1="0" y1="0" x2="1" y2="1">
      <stop offset="0" stop-color="#0B1020"/>
      <stop offset="1" stop-color="#0C1B3A"/>
    </linearGradient>
    <linearGradient id="g" x1="0" y1="0" x2="1" y2="1">
      <stop offset="0" stop-color="#79C0FF"/>
      <stop offset="1" stop-color="#B9D6FF"/>
    </linearGradient>
    <filter id="shadow" x="-20%" y="-20%" width="140%" height="140%">
      <feDropShadow dx="0" dy="10" stdDeviation="12" flood-color="#000" flood-opacity="0.35"/>
    </filter>
  </defs>

  <rect x="0" y="0" width="900" height="420" rx="22" fill="rgba(255,255,255,0.04)" stroke="rgba(255,255,255,0.12)"/>

  <g filter="url(#shadow)">
    <rect x="60" y="80" width="220" height="90" rx="16" fill="rgba(255,255,255,0.06)" stroke="rgba(255,255,255,0.18)"/>
    <text x="170" y="120" fill="#E8EEFF" font-size="22" text-anchor="middle" font-family="Segoe UI, Arial">Segmentation</text>
    <text x="170" y="150" fill="rgba(232,238,255,0.75)" font-size="16" text-anchor="middle" font-family="Segoe UI, Arial">Priorités & règles</text>

    <rect x="340" y="80" width="220" height="90" rx="16" fill="rgba(255,255,255,0.06)" stroke="rgba(255,255,255,0.18)"/>
    <text x="450" y="120" fill="#E8EEFF" font-size="22" text-anchor="middle" font-family="Segoe UI, Arial">Email Agent</text>
    <text x="450" y="150" fill="rgba(232,238,255,0.75)" font-size="16" text-anchor="middle" font-family="Segoe UI, Arial">Templates + suivi</text>

    <rect x="620" y="80" width="220" height="90" rx="16" fill="rgba(255,255,255,0.06)" stroke="rgba(255,255,255,0.18)"/>
    <text x="730" y="120" fill="#E8EEFF" font-size="22" text-anchor="middle" font-family="Segoe UI, Arial">Phone Agent</text>
    <text x="730" y="150" fill="rgba(232,238,255,0.75)" font-size="16" text-anchor="middle" font-family="Segoe UI, Arial">Appels sortants</text>

    <rect x="200" y="240" width="500" height="110" rx="18" fill="rgba(121,192,255,0.10)" stroke="rgba(121,192,255,0.35)"/>
    <text x="450" y="285" fill="#E8EEFF" font-size="24" text-anchor="middle" font-family="Segoe UI, Arial">Historique & KPI</text>
    <text x="450" y="318" fill="rgba(232,238,255,0.80)" font-size="16" text-anchor="middle" font-family="Segoe UI, Arial">Tentatives, résultats, conformité, tableaux de bord</text>
  </g>

  <path d="M290 125H330" stroke="url(#g)" stroke-width="6" stroke-linecap="round"/>
  <path d="M570 125H610" stroke="url(#g)" stroke-width="6" stroke-linecap="round"/>
  <path d="M170 170C190 210 230 240 260 255" fill="none" stroke="rgba(185,214,255,0.55)" stroke-width="4"/>
  <path d="M450 170C450 210 450 232 450 240" fill="none" stroke="rgba(185,214,255,0.55)" stroke-width="4"/>
  <path d="M730 170C710 210 670 240 640 255" fill="none" stroke="rgba(185,214,255,0.55)" stroke-width="4"/>
</svg>
